<?xml version="1.0" encoding="UTF-8" standalone="no"?>
<!DOCTYPE svg PUBLIC "-//W3C//DTD SVG 1.1//EN"
 "http://www.w3.org/Graphics/SVG/1.1/DTD/svg11.dtd">
<!-- Generated by graphviz version 13.1.1 (0)
 -->
<!-- Title: G Pages: 1 -->
<svg width="385pt" height="653pt"
 viewBox="0.00 0.00 385.00 653.00" xmlns="http://www.w3.org/2000/svg" xmlns:xlink="http://www.w3.org/1999/xlink">
<g id="graph0" class="graph" transform="scale(1 1) rotate(0) translate(4 649.4)">
<title>G</title>
<polygon fill="white" stroke="none" points="-4,4 -4,-649.4 381.4,-649.4 381.4,4 -4,4"/>
<g id="clust1" class="cluster">
<title>cluster_admin</title>
<path fill="none" stroke="dodgerblue" d="M51,-288.8C51,-288.8 342,-288.8 342,-288.8 348,-288.8 354,-294.8 354,-300.8 354,-300.8 354,-543.6 354,-543.6 354,-549.6 348,-555.6 342,-555.6 342,-555.6 51,-555.6 51,-555.6 45,-555.6 39,-549.6 39,-543.6 39,-543.6 39,-300.8 39,-300.8 39,-294.8 45,-288.8 51,-288.8"/>
<text xml:space="preserve" text-anchor="middle" x="196.5" y="-539" font-family="Helvetica,sans-Serif" font-size="14.00">Content Administrator</text>
</g>
<g id="clust2" class="cluster">
<title>cluster_system</title>
<path fill="none" stroke="seagreen" d="M20,-87C20,-87 202,-87 202,-87 208,-87 214,-93 214,-99 214,-99 214,-246.8 214,-246.8 214,-252.8 208,-258.8 202,-258.8 202,-258.8 20,-258.8 20,-258.8 14,-258.8 8,-252.8 8,-246.8 8,-246.8 8,-99 8,-99 8,-93 14,-87 20,-87"/>
<text xml:space="preserve" text-anchor="middle" x="111" y="-242.2" font-family="Helvetica,sans-Serif" font-size="14.00">System</text>
</g>
<!-- start -->
<g id="node1" class="node">
<title>start</title>
<ellipse fill="lightgrey" stroke="black" cx="282" cy="-504.8" rx="64.1" ry="18"/>
<text xml:space="preserve" text-anchor="middle" x="282" y="-501.8" font-family="Helvetica,sans-Serif" font-size="10.00">Access Admin Login</text>
</g>
<!-- login -->
<g id="node2" class="node">
<title>login</title>
<path fill="lightblue" stroke="black" d="M325.63,-427.8C325.63,-427.8 256.37,-427.8 256.37,-427.8 250.37,-427.8 244.37,-421.8 244.37,-415.8 244.37,-415.8 244.37,-403.8 244.37,-403.8 244.37,-397.8 250.37,-391.8 256.37,-391.8 256.37,-391.8 325.63,-391.8 325.63,-391.8 331.63,-391.8 337.63,-397.8 337.63,-403.8 337.63,-403.8 337.63,-415.8 337.63,-415.8 337.63,-421.8 331.63,-427.8 325.63,-427.8"/>
<text xml:space="preserve" text-anchor="middle" x="291" y="-406.8" font-family="Helvetica,sans-Serif" font-size="10.00">Enter Credentials</text>
</g>
<!-- start&#45;&gt;login -->
<g id="edge1" class="edge">
<title>start&#45;&gt;login</title>
<path fill="none" stroke="black" d="M283.69,-486.31C284.96,-473.19 286.73,-454.94 288.21,-439.67"/>
<polygon fill="black" stroke="black" points="291.69,-440.01 289.17,-429.72 284.72,-439.34 291.69,-440.01"/>
</g>
<!-- decision_login -->
<g id="node8" class="node">
<title>decision_login</title>
<polygon fill="lightpink" stroke="black" points="282,-645.4 199.37,-627.4 282,-609.4 364.63,-627.4 282,-645.4"/>
<text xml:space="preserve" text-anchor="middle" x="282" y="-624.4" font-family="Helvetica,sans-Serif" font-size="10.00">Login Successful?</text>
</g>
<!-- login&#45;&gt;decision_login -->
<g id="edge2" class="edge">
<title>login&#45;&gt;decision_login</title>
<path fill="none" stroke="black" d="M317.47,-428.24C335.46,-441.79 357.79,-462.37 368,-486.8 379.79,-515.01 381.05,-527.95 368,-555.6 357.24,-578.39 335.16,-596.32 316.07,-608.43"/>
<polygon fill="black" stroke="black" points="314.49,-605.3 307.73,-613.45 318.1,-611.3 314.49,-605.3"/>
</g>
<!-- navigate -->
<g id="node3" class="node">
<title>navigate</title>
<path fill="lightblue" stroke="black" d="M162.58,-522.8C162.58,-522.8 59.42,-522.8 59.42,-522.8 53.42,-522.8 47.42,-516.8 47.42,-510.8 47.42,-510.8 47.42,-498.8 47.42,-498.8 47.42,-492.8 53.42,-486.8 59.42,-486.8 59.42,-486.8 162.58,-486.8 162.58,-486.8 168.58,-486.8 174.58,-492.8 174.58,-498.8 174.58,-498.8 174.58,-510.8 174.58,-510.8 174.58,-516.8 168.58,-522.8 162.58,-522.8"/>
<text xml:space="preserve" text-anchor="middle" x="111" y="-501.8" font-family="Helvetica,sans-Serif" font-size="10.00">Navigate to Upload Form</text>
</g>
<!-- input_data -->
<g id="node4" class="node">
<title>input_data</title>
<path fill="lightblue" stroke="black" d="M156.19,-427.8C156.19,-427.8 65.81,-427.8 65.81,-427.8 59.81,-427.8 53.81,-421.8 53.81,-415.8 53.81,-415.8 53.81,-403.8 53.81,-403.8 53.81,-397.8 59.81,-391.8 65.81,-391.8 65.81,-391.8 156.19,-391.8 156.19,-391.8 162.19,-391.8 168.19,-397.8 168.19,-403.8 168.19,-403.8 168.19,-415.8 168.19,-415.8 168.19,-421.8 162.19,-427.8 156.19,-427.8"/>
<text xml:space="preserve" text-anchor="middle" x="111" y="-406.8" font-family="Helvetica,sans-Serif" font-size="10.00">Input Text &amp; Metadata</text>
</g>
<!-- navigate&#45;&gt;input_data -->
<g id="edge5" class="edge">
<title>navigate&#45;&gt;input_data</title>
<path fill="none" stroke="black" d="M111,-486.31C111,-473.19 111,-454.94 111,-439.67"/>
<polygon fill="black" stroke="black" points="114.5,-439.73 111,-429.73 107.5,-439.73 114.5,-439.73"/>
</g>
<!-- submit -->
<g id="node5" class="node">
<title>submit</title>
<path fill="lightblue" stroke="black" d="M135.62,-332.8C135.62,-332.8 86.38,-332.8 86.38,-332.8 80.38,-332.8 74.38,-326.8 74.38,-320.8 74.38,-320.8 74.38,-308.8 74.38,-308.8 74.38,-302.8 80.38,-296.8 86.38,-296.8 86.38,-296.8 135.62,-296.8 135.62,-296.8 141.62,-296.8 147.62,-302.8 147.62,-308.8 147.62,-308.8 147.62,-320.8 147.62,-320.8 147.62,-326.8 141.62,-332.8 135.62,-332.8"/>
<text xml:space="preserve" text-anchor="middle" x="111" y="-311.8" font-family="Helvetica,sans-Serif" font-size="10.00">Submit Form</text>
</g>
<!-- input_data&#45;&gt;submit -->
<g id="edge6" class="edge">
<title>input_data&#45;&gt;submit</title>
<path fill="none" stroke="black" d="M111,-391.31C111,-378.19 111,-359.94 111,-344.67"/>
<polygon fill="black" stroke="black" points="114.5,-344.73 111,-334.73 107.5,-344.73 114.5,-344.73"/>
</g>
<!-- trigger_ai -->
<g id="node6" class="node">
<title>trigger_ai</title>
<polygon fill="lightgreen" stroke="black" points="197.63,-226 59.82,-226 24.37,-190 162.18,-190 197.63,-226"/>
<text xml:space="preserve" text-anchor="middle" x="111" y="-205" font-family="Helvetica,sans-Serif" font-size="10.00">Trigger AI Pipeline</text>
</g>
<!-- submit&#45;&gt;trigger_ai -->
<g id="edge7" class="edge">
<title>submit&#45;&gt;trigger_ai</title>
<path fill="none" stroke="black" d="M111,-296.49C111,-280.57 111,-256.63 111,-237.82"/>
<polygon fill="black" stroke="black" points="114.5,-237.84 111,-227.84 107.5,-237.84 114.5,-237.84"/>
</g>
<!-- confirm -->
<g id="node7" class="node">
<title>confirm</title>
<polygon fill="lightgreen" stroke="black" points="206.45,-131 54.61,-131 15.55,-95 167.39,-95 206.45,-131"/>
<text xml:space="preserve" text-anchor="middle" x="111" y="-110" font-family="Helvetica,sans-Serif" font-size="10.00">Display Confirmation</text>
</g>
<!-- trigger_ai&#45;&gt;confirm -->
<g id="edge8" class="edge">
<title>trigger_ai&#45;&gt;confirm</title>
<path fill="none" stroke="black" d="M111,-189.51C111,-176.39 111,-158.14 111,-142.87"/>
<polygon fill="black" stroke="black" points="114.5,-142.93 111,-132.93 107.5,-142.93 114.5,-142.93"/>
</g>
<!-- end_node -->
<g id="node9" class="node">
<title>end_node</title>
<ellipse fill="lightgrey" stroke="black" cx="111" cy="-18" rx="88.18" ry="18"/>
<text xml:space="preserve" text-anchor="middle" x="111" y="-15" font-family="Helvetica,sans-Serif" font-size="10.00">Content in Processing Queue</text>
</g>
<!-- confirm&#45;&gt;end_node -->
<g id="edge9" class="edge">
<title>confirm&#45;&gt;end_node</title>
<path fill="none" stroke="black" d="M111,-94.51C111,-81.39 111,-63.14 111,-47.87"/>
<polygon fill="black" stroke="black" points="114.5,-47.93 111,-37.93 107.5,-47.93 114.5,-47.93"/>
</g>
<!-- decision_login&#45;&gt;start -->
<g id="edge4" class="edge">
<title>decision_login&#45;&gt;start</title>
<path fill="none" stroke="black" d="M282,-609.12C282,-589.6 282,-557.52 282,-534.28"/>
<polygon fill="black" stroke="black" points="285.5,-534.56 282,-524.56 278.5,-534.56 285.5,-534.56"/>
<text xml:space="preserve" text-anchor="middle" x="290.56" y="-567.8" font-family="Times,serif" font-size="14.00">No</text>
</g>
<!-- decision_login&#45;&gt;navigate -->
<g id="edge3" class="edge">
<title>decision_login&#45;&gt;navigate</title>
<path fill="none" stroke="black" d="M263.05,-613.03C234.47,-592.88 179.94,-554.42 144.54,-529.46"/>
<polygon fill="black" stroke="black" points="146.97,-526.88 136.78,-523.98 142.93,-532.61 146.97,-526.88"/>
<text xml:space="preserve" text-anchor="middle" x="222.7" y="-567.8" font-family="Times,serif" font-size="14.00">Yes</text>
</g>
</g>
</svg>
