<?xml version="1.0" encoding="UTF-8" standalone="no"?>
<!DOCTYPE svg PUBLIC "-//W3C//DTD SVG 1.1//EN"
 "http://www.w3.org/Graphics/SVG/1.1/DTD/svg11.dtd">
<!-- Generated by graphviz version 13.1.1 (0)
 -->
<!-- Title: G Pages: 1 -->
<svg width="593pt" height="608pt"
 viewBox="0.00 0.00 593.00 608.00" xmlns="http://www.w3.org/2000/svg" xmlns:xlink="http://www.w3.org/1999/xlink">
<g id="graph0" class="graph" transform="scale(1 1) rotate(0) translate(4 603.65)">
<title>G</title>
<polygon fill="white" stroke="none" points="-4,4 -4,-603.65 589,-603.65 589,4 -4,4"/>
<text xml:space="preserve" text-anchor="middle" x="292.5" y="-7.6" font-family="Helvetica,sans-Serif" font-size="12.00">Admin Content Curation Flow</text>
<g id="clust1" class="cluster">
<title>cluster_admin</title>
<path fill="none" stroke="darkorange" d="M69,-30.4C69,-30.4 565,-30.4 565,-30.4 571,-30.4 577,-36.4 577,-42.4 577,-42.4 577,-387.05 577,-387.05 577,-393.05 571,-399.05 565,-399.05 565,-399.05 69,-399.05 69,-399.05 63,-399.05 57,-393.05 57,-387.05 57,-387.05 57,-42.4 57,-42.4 57,-36.4 63,-30.4 69,-30.4"/>
<text xml:space="preserve" text-anchor="middle" x="317" y="-384.25" font-family="Helvetica,sans-Serif" font-size="12.00">Content Administrator</text>
</g>
<!-- start -->
<g id="node1" class="node">
<title>start</title>
<ellipse fill="lightblue" stroke="black" cx="116" cy="-346.03" rx="51.41" ry="22.63"/>
<text xml:space="preserve" text-anchor="middle" x="116" y="-349.03" font-family="Helvetica,sans-Serif" font-size="10.00">Login to</text>
<text xml:space="preserve" text-anchor="middle" x="116" y="-337.03" font-family="Helvetica,sans-Serif" font-size="10.00">Admin Panel</text>
</g>
<!-- nav_queue -->
<g id="node2" class="node">
<title>nav_queue</title>
<path fill="lightyellow" stroke="black" d="M169.3,-264.4C169.3,-264.4 76.7,-264.4 76.7,-264.4 70.7,-264.4 64.7,-258.4 64.7,-252.4 64.7,-252.4 64.7,-240.4 64.7,-240.4 64.7,-234.4 70.7,-228.4 76.7,-228.4 76.7,-228.4 169.3,-228.4 169.3,-228.4 175.3,-228.4 181.3,-234.4 181.3,-240.4 181.3,-240.4 181.3,-252.4 181.3,-252.4 181.3,-258.4 175.3,-264.4 169.3,-264.4"/>
<text xml:space="preserve" text-anchor="middle" x="123" y="-243.4" font-family="Helvetica,sans-Serif" font-size="10.00">Access Review Queue</text>
</g>
<!-- start&#45;&gt;nav_queue -->
<g id="edge1" class="edge">
<title>start&#45;&gt;nav_queue</title>
<path fill="none" stroke="black" d="M117.55,-323.36C118.55,-309.44 119.86,-291.21 120.94,-276.09"/>
<polygon fill="black" stroke="black" points="124.42,-276.51 121.65,-266.29 117.44,-276.01 124.42,-276.51"/>
</g>
<!-- select_item -->
<g id="node3" class="node">
<title>select_item</title>
<path fill="lightyellow" stroke="black" d="M161.91,-169.4C161.91,-169.4 82.09,-169.4 82.09,-169.4 76.09,-169.4 70.09,-163.4 70.09,-157.4 70.09,-157.4 70.09,-145.4 70.09,-145.4 70.09,-139.4 76.09,-133.4 82.09,-133.4 82.09,-133.4 161.91,-133.4 161.91,-133.4 167.91,-133.4 173.91,-139.4 173.91,-145.4 173.91,-145.4 173.91,-157.4 173.91,-157.4 173.91,-163.4 167.91,-169.4 161.91,-169.4"/>
<text xml:space="preserve" text-anchor="middle" x="122" y="-148.4" font-family="Helvetica,sans-Serif" font-size="10.00">Select Content Item</text>
</g>
<!-- nav_queue&#45;&gt;select_item -->
<g id="edge2" class="edge">
<title>nav_queue&#45;&gt;select_item</title>
<path fill="none" stroke="black" d="M122.81,-227.91C122.67,-214.79 122.47,-196.54 122.31,-181.27"/>
<polygon fill="black" stroke="black" points="125.81,-181.29 122.2,-171.33 118.81,-181.36 125.81,-181.29"/>
</g>
<!-- review_assets -->
<g id="node4" class="node">
<title>review_assets</title>
<path fill="lightyellow" stroke="black" d="M162.41,-74.4C162.41,-74.4 77.59,-74.4 77.59,-74.4 71.59,-74.4 65.59,-68.4 65.59,-62.4 65.59,-62.4 65.59,-50.4 65.59,-50.4 65.59,-44.4 71.59,-38.4 77.59,-38.4 77.59,-38.4 162.41,-38.4 162.41,-38.4 168.41,-38.4 174.41,-44.4 174.41,-50.4 174.41,-50.4 174.41,-62.4 174.41,-62.4 174.41,-68.4 168.41,-74.4 162.41,-74.4"/>
<text xml:space="preserve" text-anchor="middle" x="120" y="-59.4" font-family="Helvetica,sans-Serif" font-size="10.00">Review AI Assets</text>
<text xml:space="preserve" text-anchor="middle" x="120" y="-47.4" font-family="Helvetica,sans-Serif" font-size="10.00">(Voice, Image, Sync)</text>
</g>
<!-- select_item&#45;&gt;review_assets -->
<g id="edge3" class="edge">
<title>select_item&#45;&gt;review_assets</title>
<path fill="none" stroke="black" d="M121.62,-132.91C121.34,-119.79 120.95,-101.54 120.62,-86.27"/>
<polygon fill="black" stroke="black" points="124.12,-86.25 120.41,-76.33 117.12,-86.4 124.12,-86.25"/>
</g>
<!-- decision1 -->
<g id="node9" class="node">
<title>decision1</title>
<polygon fill="pink" stroke="black" points="252,-599.65 163.7,-581.65 252,-563.65 340.3,-581.65 252,-599.65"/>
<text xml:space="preserve" text-anchor="middle" x="252" y="-578.65" font-family="Helvetica,sans-Serif" font-size="10.00">Assets Acceptable?</text>
</g>
<!-- review_assets&#45;&gt;decision1 -->
<g id="edge4" class="edge">
<title>review_assets&#45;&gt;decision1</title>
<path fill="none" stroke="black" d="M68.06,-74.81C35.63,-89.32 0,-113.63 0,-150.4 0,-471.85 0,-471.85 0,-471.85 0,-545.51 91.86,-569.89 164.66,-577.64"/>
<polygon fill="black" stroke="black" points="163.91,-581.08 174.2,-578.56 164.58,-574.11 163.91,-581.08"/>
</g>
<!-- approve -->
<g id="node5" class="node">
<title>approve</title>
<path fill="palegreen" stroke="black" d="M297.14,-364.03C297.14,-364.03 222.86,-364.03 222.86,-364.03 216.86,-364.03 210.86,-358.03 210.86,-352.03 210.86,-352.03 210.86,-340.03 210.86,-340.03 210.86,-334.03 216.86,-328.03 222.86,-328.03 222.86,-328.03 297.14,-328.03 297.14,-328.03 303.14,-328.03 309.14,-334.03 309.14,-340.03 309.14,-340.03 309.14,-352.03 309.14,-352.03 309.14,-358.03 303.14,-364.03 297.14,-364.03"/>
<text xml:space="preserve" text-anchor="middle" x="260" y="-343.03" font-family="Helvetica,sans-Serif" font-size="10.00">Approve &amp; Publish</text>
</g>
<!-- end -->
<g id="node8" class="node">
<title>end</title>
<ellipse fill="lightblue" stroke="black" cx="390" cy="-246.4" rx="73.81" ry="18"/>
<text xml:space="preserve" text-anchor="middle" x="390" y="-243.4" font-family="Helvetica,sans-Serif" font-size="10.00">Content Status Updated</text>
</g>
<!-- approve&#45;&gt;end -->
<g id="edge9" class="edge">
<title>approve&#45;&gt;end</title>
<path fill="none" stroke="black" d="M283.24,-327.57C304.3,-311.76 335.49,-288.34 358.72,-270.89"/>
<polygon fill="black" stroke="black" points="360.72,-273.76 366.62,-264.96 356.52,-268.17 360.72,-273.76"/>
</g>
<!-- regenerate -->
<g id="node6" class="node">
<title>regenerate</title>
<path fill="#eedd82" stroke="black" d="M416.02,-364.03C416.02,-364.03 363.98,-364.03 363.98,-364.03 357.98,-364.03 351.98,-358.03 351.98,-352.03 351.98,-352.03 351.98,-340.03 351.98,-340.03 351.98,-334.03 357.98,-328.03 363.98,-328.03 363.98,-328.03 416.02,-328.03 416.02,-328.03 422.02,-328.03 428.02,-334.03 428.02,-340.03 428.02,-340.03 428.02,-352.03 428.02,-352.03 428.02,-358.03 422.02,-364.03 416.02,-364.03"/>
<text xml:space="preserve" text-anchor="middle" x="390" y="-349.03" font-family="Helvetica,sans-Serif" font-size="10.00">Request AI</text>
<text xml:space="preserve" text-anchor="middle" x="390" y="-337.03" font-family="Helvetica,sans-Serif" font-size="10.00">Regeneration</text>
</g>
<!-- regenerate&#45;&gt;end -->
<g id="edge10" class="edge">
<title>regenerate&#45;&gt;end</title>
<path fill="none" stroke="black" d="M390,-327.57C390,-313.27 390,-292.75 390,-276.05"/>
<polygon fill="black" stroke="black" points="393.5,-276.22 390,-266.22 386.5,-276.22 393.5,-276.22"/>
</g>
<!-- reject -->
<g id="node7" class="node">
<title>reject</title>
<path fill="lightcoral" stroke="black" d="M557.41,-364.03C557.41,-364.03 482.59,-364.03 482.59,-364.03 476.59,-364.03 470.59,-358.03 470.59,-352.03 470.59,-352.03 470.59,-340.03 470.59,-340.03 470.59,-334.03 476.59,-328.03 482.59,-328.03 482.59,-328.03 557.41,-328.03 557.41,-328.03 563.41,-328.03 569.41,-334.03 569.41,-340.03 569.41,-340.03 569.41,-352.03 569.41,-352.03 569.41,-358.03 563.41,-364.03 557.41,-364.03"/>
<text xml:space="preserve" text-anchor="middle" x="520" y="-343.03" font-family="Helvetica,sans-Serif" font-size="10.00">Reject Submission</text>
</g>
<!-- reject&#45;&gt;end -->
<g id="edge11" class="edge">
<title>reject&#45;&gt;end</title>
<path fill="none" stroke="black" d="M496.76,-327.57C475.7,-311.76 444.51,-288.34 421.28,-270.89"/>
<polygon fill="black" stroke="black" points="423.48,-268.17 413.38,-264.96 419.28,-273.76 423.48,-268.17"/>
</g>
<!-- decision1&#45;&gt;approve -->
<g id="edge5" class="edge">
<title>decision1&#45;&gt;approve</title>
<path fill="none" stroke="black" d="M252.59,-563.48C253.95,-523.65 257.34,-424.66 259.02,-375.57"/>
<polygon fill="black" stroke="black" points="262.51,-375.86 259.36,-365.74 255.52,-375.62 262.51,-375.86"/>
<text xml:space="preserve" text-anchor="middle" x="267.15" y="-466.65" font-family="Times,serif" font-size="14.00">Yes</text>
</g>
<!-- decision2 -->
<g id="node10" class="node">
<title>decision2</title>
<polygon fill="pink" stroke="black" points="411,-488.85 316.57,-470.85 411,-452.85 505.43,-470.85 411,-488.85"/>
<text xml:space="preserve" text-anchor="middle" x="411" y="-467.85" font-family="Helvetica,sans-Serif" font-size="10.00">Source Text Correct?</text>
</g>
<!-- decision1&#45;&gt;decision2 -->
<g id="edge6" class="edge">
<title>decision1&#45;&gt;decision2</title>
<path fill="none" stroke="black" d="M271.5,-567.31C299.08,-548.44 349.69,-513.81 381.78,-491.85"/>
<polygon fill="black" stroke="black" points="383.57,-494.87 389.84,-486.33 379.62,-489.09 383.57,-494.87"/>
<text xml:space="preserve" text-anchor="middle" x="349.57" y="-522.05" font-family="Times,serif" font-size="14.00">No</text>
</g>
<!-- decision2&#45;&gt;regenerate -->
<g id="edge7" class="edge">
<title>decision2&#45;&gt;regenerate</title>
<path fill="none" stroke="black" d="M408.12,-453.03C404.72,-433.14 399,-399.69 394.9,-375.69"/>
<polygon fill="black" stroke="black" points="398.37,-375.2 393.23,-365.93 391.47,-376.38 398.37,-375.2"/>
<text xml:space="preserve" text-anchor="middle" x="413.88" y="-411.25" font-family="Times,serif" font-size="14.00">Yes</text>
</g>
<!-- decision2&#45;&gt;reject -->
<g id="edge8" class="edge">
<title>decision2&#45;&gt;reject</title>
<path fill="none" stroke="black" d="M423.93,-455.28C441.99,-434.93 475.04,-397.69 497.27,-372.64"/>
<polygon fill="black" stroke="black" points="499.61,-375.28 503.63,-365.47 494.37,-370.63 499.61,-375.28"/>
<text xml:space="preserve" text-anchor="middle" x="474.06" y="-411.25" font-family="Times,serif" font-size="14.00">No</text>
</g>
</g>
</svg>
