<?xml version="1.0" encoding="UTF-8" standalone="no"?>
<!DOCTYPE svg PUBLIC "-//W3C//DTD SVG 1.1//EN"
 "http://www.w3.org/Graphics/SVG/1.1/DTD/svg11.dtd">
<!-- Generated by graphviz version 13.1.1 (0)
 -->
<!-- Title: TaskFlow Pages: 1 -->
<svg width="606pt" height="380pt"
 viewBox="0.00 0.00 606.00 380.00" xmlns="http://www.w3.org/2000/svg" xmlns:xlink="http://www.w3.org/1999/xlink">
<g id="graph0" class="graph" transform="scale(1 1) rotate(0) translate(4 375.6)">
<title>TaskFlow</title>
<polygon fill="white" stroke="none" points="-4,4 -4,-375.6 602,-375.6 602,4 -4,4"/>
<g id="clust1" class="cluster">
<title>cluster_user</title>
<path fill="none" stroke="#4caf50" d="M20,-112.4C20,-112.4 562,-112.4 562,-112.4 568,-112.4 574,-118.4 574,-124.4 574,-124.4 574,-269.8 574,-269.8 574,-275.8 568,-281.8 562,-281.8 562,-281.8 20,-281.8 20,-281.8 14,-281.8 8,-275.8 8,-269.8 8,-269.8 8,-124.4 8,-124.4 8,-118.4 14,-112.4 20,-112.4"/>
<text xml:space="preserve" text-anchor="middle" x="291" y="-267" font-family="Helvetica,sans-Serif" font-size="12.00">User Actions</text>
</g>
<g id="clust2" class="cluster">
<title>cluster_system</title>
<path fill="none" stroke="#2196f3" d="M458,-8C458,-8 578,-8 578,-8 584,-8 590,-14 590,-20 590,-20 590,-70.4 590,-70.4 590,-76.4 584,-82.4 578,-82.4 578,-82.4 458,-82.4 458,-82.4 452,-82.4 446,-76.4 446,-70.4 446,-70.4 446,-20 446,-20 446,-14 452,-8 458,-8"/>
<text xml:space="preserve" text-anchor="middle" x="518" y="-67.6" font-family="Helvetica,sans-Serif" font-size="12.00">System Actions</text>
</g>
<!-- start -->
<g id="node1" class="node">
<title>start</title>
<ellipse fill="#c8e6c9" stroke="black" cx="62" cy="-233.4" rx="45.73" ry="18"/>
<text xml:space="preserve" text-anchor="middle" x="62" y="-230.4" font-family="Helvetica,sans-Serif" font-size="10.00">Begin Search</text>
</g>
<!-- decision -->
<g id="node8" class="node">
<title>decision</title>
<polygon fill="#ffcdd2" stroke="black" points="198,-371.6 121.53,-353.6 198,-335.6 274.47,-353.6 198,-371.6"/>
<text xml:space="preserve" text-anchor="middle" x="198" y="-350.6" font-family="Helvetica,sans-Serif" font-size="10.00">Search or Filter?</text>
</g>
<!-- start&#45;&gt;decision -->
<g id="edge1" class="edge">
<title>start&#45;&gt;decision</title>
<path fill="none" stroke="black" d="M80,-250.04C104.13,-271.02 147.06,-308.33 173.95,-331.69"/>
<polygon fill="black" stroke="black" points="171.41,-334.13 181.26,-338.05 176,-328.85 171.41,-334.13"/>
</g>
<!-- input_query -->
<g id="node2" class="node">
<title>input_query</title>
<path fill="#e8f5e9" stroke="black" d="M233.46,-251.4C233.46,-251.4 162.54,-251.4 162.54,-251.4 156.54,-251.4 150.54,-245.4 150.54,-239.4 150.54,-239.4 150.54,-227.4 150.54,-227.4 150.54,-221.4 156.54,-215.4 162.54,-215.4 162.54,-215.4 233.46,-215.4 233.46,-215.4 239.46,-215.4 245.46,-221.4 245.46,-227.4 245.46,-227.4 245.46,-239.4 245.46,-239.4 245.46,-245.4 239.46,-251.4 233.46,-251.4"/>
<text xml:space="preserve" text-anchor="middle" x="198" y="-230.4" font-family="Helvetica,sans-Serif" font-size="10.00">Enter Tribe Name</text>
</g>
<!-- execute_search -->
<g id="node4" class="node">
<title>execute_search</title>
<path fill="#e8f5e9" stroke="black" d="M291.3,-156.4C291.3,-156.4 228.7,-156.4 228.7,-156.4 222.7,-156.4 216.7,-150.4 216.7,-144.4 216.7,-144.4 216.7,-132.4 216.7,-132.4 216.7,-126.4 222.7,-120.4 228.7,-120.4 228.7,-120.4 291.3,-120.4 291.3,-120.4 297.3,-120.4 303.3,-126.4 303.3,-132.4 303.3,-132.4 303.3,-144.4 303.3,-144.4 303.3,-150.4 297.3,-156.4 291.3,-156.4"/>
<text xml:space="preserve" text-anchor="middle" x="260" y="-135.4" font-family="Helvetica,sans-Serif" font-size="10.00">Execute Search</text>
</g>
<!-- input_query&#45;&gt;execute_search -->
<g id="edge4" class="edge">
<title>input_query&#45;&gt;execute_search</title>
<path fill="none" stroke="black" d="M209.66,-214.91C218.84,-201.14 231.79,-181.72 242.25,-166.02"/>
<polygon fill="black" stroke="black" points="244.92,-168.34 247.55,-158.07 239.09,-164.45 244.92,-168.34"/>
</g>
<!-- apply_filter -->
<g id="node3" class="node">
<title>apply_filter</title>
<path fill="#e8f5e9" stroke="black" d="M389.07,-251.4C389.07,-251.4 300.93,-251.4 300.93,-251.4 294.93,-251.4 288.93,-245.4 288.93,-239.4 288.93,-239.4 288.93,-227.4 288.93,-227.4 288.93,-221.4 294.93,-215.4 300.93,-215.4 300.93,-215.4 389.07,-215.4 389.07,-215.4 395.07,-215.4 401.07,-221.4 401.07,-227.4 401.07,-227.4 401.07,-239.4 401.07,-239.4 401.07,-245.4 395.07,-251.4 389.07,-251.4"/>
<text xml:space="preserve" text-anchor="middle" x="345" y="-230.4" font-family="Helvetica,sans-Serif" font-size="10.00">Select Category Filter</text>
</g>
<!-- apply_filter&#45;&gt;execute_search -->
<g id="edge5" class="edge">
<title>apply_filter&#45;&gt;execute_search</title>
<path fill="none" stroke="black" d="M329.01,-214.91C316.19,-200.88 298.01,-180.98 283.52,-165.14"/>
<polygon fill="black" stroke="black" points="286.27,-162.95 276.94,-157.93 281.1,-167.67 286.27,-162.95"/>
</g>
<!-- display_results -->
<g id="node7" class="node">
<title>display_results</title>
<polygon fill="#e3f2fd" stroke="black" points="582.13,-52 453.87,-52 453.87,-16 582.13,-16 582.13,-52"/>
<text xml:space="preserve" text-anchor="middle" x="518" y="-31" font-family="Helvetica,sans-Serif" font-size="10.00">Display Matching Results</text>
</g>
<!-- execute_search&#45;&gt;display_results -->
<g id="edge6" class="edge">
<title>execute_search&#45;&gt;display_results</title>
<path fill="none" stroke="black" d="M303.77,-120.03C347.87,-102.52 416.04,-75.47 463.6,-56.59"/>
<polygon fill="black" stroke="black" points="464.61,-59.96 472.61,-53.01 462.03,-53.45 464.61,-59.96"/>
</g>
<!-- select_content -->
<g id="node5" class="node">
<title>select_content</title>
<path fill="#e8f5e9" stroke="black" d="M554.36,-251.4C554.36,-251.4 455.64,-251.4 455.64,-251.4 449.64,-251.4 443.64,-245.4 443.64,-239.4 443.64,-239.4 443.64,-227.4 443.64,-227.4 443.64,-221.4 449.64,-215.4 455.64,-215.4 455.64,-215.4 554.36,-215.4 554.36,-215.4 560.36,-215.4 566.36,-221.4 566.36,-227.4 566.36,-227.4 566.36,-239.4 566.36,-239.4 566.36,-245.4 560.36,-251.4 554.36,-251.4"/>
<text xml:space="preserve" text-anchor="middle" x="505" y="-230.4" font-family="Helvetica,sans-Serif" font-size="10.00">Select Content from List</text>
</g>
<!-- end -->
<g id="node6" class="node">
<title>end</title>
<ellipse fill="#c8e6c9" stroke="black" cx="407" cy="-138.4" rx="61.1" ry="18"/>
<text xml:space="preserve" text-anchor="middle" x="407" y="-135.4" font-family="Helvetica,sans-Serif" font-size="10.00">View Content Page</text>
</g>
<!-- select_content&#45;&gt;end -->
<g id="edge8" class="edge">
<title>select_content&#45;&gt;end</title>
<path fill="none" stroke="black" d="M486.57,-214.91C471.36,-200.48 449.62,-179.85 432.71,-163.8"/>
<polygon fill="black" stroke="black" points="435.12,-161.26 425.46,-156.92 430.31,-166.34 435.12,-161.26"/>
</g>
<!-- display_results&#45;&gt;select_content -->
<g id="edge7" class="edge">
<title>display_results&#45;&gt;select_content</title>
<path fill="none" stroke="black" d="M516.86,-52.27C514.62,-86.26 509.63,-162.13 506.89,-203.74"/>
<polygon fill="black" stroke="black" points="503.4,-203.51 506.23,-213.72 510.38,-203.97 503.4,-203.51"/>
</g>
<!-- decision&#45;&gt;input_query -->
<g id="edge2" class="edge">
<title>decision&#45;&gt;input_query</title>
<path fill="none" stroke="black" d="M198,-335.16C198,-316.11 198,-285.3 198,-262.76"/>
<polygon fill="black" stroke="black" points="201.5,-263.04 198,-253.04 194.5,-263.04 201.5,-263.04"/>
<text xml:space="preserve" text-anchor="middle" x="217.04" y="-294" font-family="Times,serif" font-size="14.00">Search</text>
</g>
<!-- decision&#45;&gt;apply_filter -->
<g id="edge3" class="edge">
<title>decision&#45;&gt;apply_filter</title>
<path fill="none" stroke="black" d="M214.58,-339.27C238.73,-319.85 284.03,-283.43 314.36,-259.04"/>
<polygon fill="black" stroke="black" points="316.47,-261.83 322.07,-252.84 312.08,-256.38 316.47,-261.83"/>
<text xml:space="preserve" text-anchor="middle" x="291.07" y="-294" font-family="Times,serif" font-size="14.00">Filter</text>
</g>
</g>
</svg>
