<?xml version="1.0" encoding="UTF-8" standalone="no"?>
<!DOCTYPE svg PUBLIC "-//W3C//DTD SVG 1.1//EN"
 "http://www.w3.org/Graphics/SVG/1.1/DTD/svg11.dtd">
<!-- Generated by graphviz version 13.1.1 (0)
 -->
<!-- Title: TaskFlow Pages: 1 -->
<svg width="300pt" height="1010pt"
 viewBox="0.00 0.00 300.00 1010.00" xmlns="http://www.w3.org/2000/svg" xmlns:xlink="http://www.w3.org/1999/xlink">
<g id="graph0" class="graph" transform="scale(1 1) rotate(0) translate(4 1005.8)">
<title>TaskFlow</title>
<polygon fill="white" stroke="none" points="-4,4 -4,-1005.8 296.49,-1005.8 296.49,4 -4,4"/>
<!-- start -->
<g id="node1" class="node">
<title>start</title>
<ellipse fill="#e0f7fa" stroke="black" cx="185.76" cy="-983.8" rx="31.43" ry="18"/>
<text xml:space="preserve" text-anchor="middle" x="185.76" y="-979.6" font-family="Helvetica,sans-Serif" font-size="14.00">Start</text>
</g>
<!-- home -->
<g id="node2" class="node">
<title>home</title>
<path fill="#fff9c4" stroke="black" d="M233.9,-906.8C233.9,-906.8 137.63,-906.8 137.63,-906.8 131.63,-906.8 125.63,-900.8 125.63,-894.8 125.63,-894.8 125.63,-882.8 125.63,-882.8 125.63,-876.8 131.63,-870.8 137.63,-870.8 137.63,-870.8 233.9,-870.8 233.9,-870.8 239.9,-870.8 245.9,-876.8 245.9,-882.8 245.9,-882.8 245.9,-894.8 245.9,-894.8 245.9,-900.8 239.9,-906.8 233.9,-906.8"/>
<text xml:space="preserve" text-anchor="middle" x="185.76" y="-884.6" font-family="Helvetica,sans-Serif" font-size="14.00">Visit Home Page</text>
</g>
<!-- start&#45;&gt;home -->
<g id="edge1" class="edge">
<title>start&#45;&gt;home</title>
<path fill="none" stroke="black" d="M185.76,-965.31C185.76,-952.19 185.76,-933.94 185.76,-918.67"/>
<polygon fill="black" stroke="black" points="189.26,-918.73 185.76,-908.73 182.26,-918.73 189.26,-918.73"/>
</g>
<!-- explore -->
<g id="node3" class="node">
<title>explore</title>
<path fill="#fff9c4" stroke="black" d="M247.46,-811.8C247.46,-811.8 124.07,-811.8 124.07,-811.8 118.07,-811.8 112.07,-805.8 112.07,-799.8 112.07,-799.8 112.07,-787.8 112.07,-787.8 112.07,-781.8 118.07,-775.8 124.07,-775.8 124.07,-775.8 247.46,-775.8 247.46,-775.8 253.46,-775.8 259.46,-781.8 259.46,-787.8 259.46,-787.8 259.46,-799.8 259.46,-799.8 259.46,-805.8 253.46,-811.8 247.46,-811.8"/>
<text xml:space="preserve" text-anchor="middle" x="185.76" y="-789.6" font-family="Helvetica,sans-Serif" font-size="14.00">Click &#39;Start Exploring&#39;</text>
</g>
<!-- home&#45;&gt;explore -->
<g id="edge2" class="edge">
<title>home&#45;&gt;explore</title>
<path fill="none" stroke="black" d="M185.76,-870.31C185.76,-857.19 185.76,-838.94 185.76,-823.67"/>
<polygon fill="black" stroke="black" points="189.26,-823.73 185.76,-813.73 182.26,-823.73 189.26,-823.73"/>
</g>
<!-- map -->
<g id="node4" class="node">
<title>map</title>
<path fill="#fff9c4" stroke="black" d="M235.06,-716.8C235.06,-716.8 136.46,-716.8 136.46,-716.8 130.46,-716.8 124.46,-710.8 124.46,-704.8 124.46,-704.8 124.46,-692.8 124.46,-692.8 124.46,-686.8 130.46,-680.8 136.46,-680.8 136.46,-680.8 235.06,-680.8 235.06,-680.8 241.06,-680.8 247.06,-686.8 247.06,-692.8 247.06,-692.8 247.06,-704.8 247.06,-704.8 247.06,-710.8 241.06,-716.8 235.06,-716.8"/>
<text xml:space="preserve" text-anchor="middle" x="185.76" y="-694.6" font-family="Helvetica,sans-Serif" font-size="14.00">Interact with Map</text>
</g>
<!-- explore&#45;&gt;map -->
<g id="edge3" class="edge">
<title>explore&#45;&gt;map</title>
<path fill="none" stroke="black" d="M185.76,-775.31C185.76,-762.19 185.76,-743.94 185.76,-728.67"/>
<polygon fill="black" stroke="black" points="189.26,-728.73 185.76,-718.73 182.26,-728.73 189.26,-728.73"/>
</g>
<!-- region -->
<g id="node5" class="node">
<title>region</title>
<path fill="#fff9c4" stroke="black" d="M244.79,-621.8C244.79,-621.8 126.73,-621.8 126.73,-621.8 120.73,-621.8 114.73,-615.8 114.73,-609.8 114.73,-609.8 114.73,-597.8 114.73,-597.8 114.73,-591.8 120.73,-585.8 126.73,-585.8 126.73,-585.8 244.79,-585.8 244.79,-585.8 250.79,-585.8 256.79,-591.8 256.79,-597.8 256.79,-597.8 256.79,-609.8 256.79,-609.8 256.79,-615.8 250.79,-621.8 244.79,-621.8"/>
<text xml:space="preserve" text-anchor="middle" x="185.76" y="-599.6" font-family="Helvetica,sans-Serif" font-size="14.00">Select Tribal Region</text>
</g>
<!-- map&#45;&gt;region -->
<g id="edge4" class="edge">
<title>map&#45;&gt;region</title>
<path fill="none" stroke="black" d="M185.76,-680.31C185.76,-667.19 185.76,-648.94 185.76,-633.67"/>
<polygon fill="black" stroke="black" points="189.26,-633.73 185.76,-623.73 182.26,-633.73 189.26,-633.73"/>
</g>
<!-- categories -->
<g id="node6" class="node">
<title>categories</title>
<path fill="#fff9c4" stroke="black" d="M259.19,-526.8C259.19,-526.8 112.33,-526.8 112.33,-526.8 106.33,-526.8 100.33,-520.8 100.33,-514.8 100.33,-514.8 100.33,-502.8 100.33,-502.8 100.33,-496.8 106.33,-490.8 112.33,-490.8 112.33,-490.8 259.19,-490.8 259.19,-490.8 265.19,-490.8 271.19,-496.8 271.19,-502.8 271.19,-502.8 271.19,-514.8 271.19,-514.8 271.19,-520.8 265.19,-526.8 259.19,-526.8"/>
<text xml:space="preserve" text-anchor="middle" x="185.76" y="-504.6" font-family="Helvetica,sans-Serif" font-size="14.00">View Content Categories</text>
</g>
<!-- region&#45;&gt;categories -->
<g id="edge5" class="edge">
<title>region&#45;&gt;categories</title>
<path fill="none" stroke="black" d="M185.76,-585.31C185.76,-572.19 185.76,-553.94 185.76,-538.67"/>
<polygon fill="black" stroke="black" points="189.26,-538.73 185.76,-528.73 182.26,-538.73 189.26,-538.73"/>
</g>
<!-- select_content -->
<g id="node7" class="node">
<title>select_content</title>
<path fill="#fff9c4" stroke="black" d="M254.13,-431.8C254.13,-431.8 117.39,-431.8 117.39,-431.8 111.39,-431.8 105.39,-425.8 105.39,-419.8 105.39,-419.8 105.39,-407.8 105.39,-407.8 105.39,-401.8 111.39,-395.8 117.39,-395.8 117.39,-395.8 254.13,-395.8 254.13,-395.8 260.13,-395.8 266.13,-401.8 266.13,-407.8 266.13,-407.8 266.13,-419.8 266.13,-419.8 266.13,-425.8 260.13,-431.8 254.13,-431.8"/>
<text xml:space="preserve" text-anchor="middle" x="185.76" y="-409.6" font-family="Helvetica,sans-Serif" font-size="14.00">Select Specific Content</text>
</g>
<!-- categories&#45;&gt;select_content -->
<g id="edge6" class="edge">
<title>categories&#45;&gt;select_content</title>
<path fill="none" stroke="black" d="M185.76,-490.31C185.76,-477.19 185.76,-458.94 185.76,-443.67"/>
<polygon fill="black" stroke="black" points="189.26,-443.73 185.76,-433.73 182.26,-443.73 189.26,-443.73"/>
</g>
<!-- auth_check -->
<g id="node8" class="node">
<title>auth_check</title>
<polygon fill="#ffcdd2" stroke="black" points="185.76,-336.8 79.04,-318.8 185.76,-300.8 292.49,-318.8 185.76,-336.8"/>
<text xml:space="preserve" text-anchor="middle" x="185.76" y="-314.6" font-family="Helvetica,sans-Serif" font-size="14.00">Authenticated?</text>
</g>
<!-- select_content&#45;&gt;auth_check -->
<g id="edge7" class="edge">
<title>select_content&#45;&gt;auth_check</title>
<path fill="none" stroke="black" d="M185.76,-395.31C185.76,-382.19 185.76,-363.94 185.76,-348.67"/>
<polygon fill="black" stroke="black" points="189.26,-348.73 185.76,-338.73 182.26,-348.73 189.26,-348.73"/>
</g>
<!-- login -->
<g id="node9" class="node">
<title>login</title>
<polygon fill="#d1c4e9" stroke="black" points="189.52,-226 0,-226 0,-190 189.52,-190 189.52,-226"/>
<text xml:space="preserve" text-anchor="middle" x="94.76" y="-203.8" font-family="Helvetica,sans-Serif" font-size="14.00">Prompt &amp; Authenticate User</text>
</g>
<!-- auth_check&#45;&gt;login -->
<g id="edge9" class="edge">
<title>auth_check&#45;&gt;login</title>
<path fill="none" stroke="black" d="M173.11,-302.67C158.47,-285.18 134.13,-256.07 116.46,-234.94"/>
<polygon fill="black" stroke="black" points="119.18,-232.74 110.08,-227.31 113.81,-237.23 119.18,-232.74"/>
<text xml:space="preserve" text-anchor="middle" x="154.27" y="-259.2" font-family="Times,serif" font-size="14.00">No</text>
</g>
<!-- access -->
<g id="node10" class="node">
<title>access</title>
<path fill="#c8e6c9" stroke="black" d="M243.01,-131C243.01,-131 126.51,-131 126.51,-131 120.51,-131 114.51,-125 114.51,-119 114.51,-119 114.51,-107 114.51,-107 114.51,-101 120.51,-95 126.51,-95 126.51,-95 243.01,-95 243.01,-95 249.01,-95 255.01,-101 255.01,-107 255.01,-107 255.01,-119 255.01,-119 255.01,-125 249.01,-131 243.01,-131"/>
<text xml:space="preserve" text-anchor="middle" x="184.76" y="-108.8" font-family="Helvetica,sans-Serif" font-size="14.00">Access Full Content</text>
</g>
<!-- auth_check&#45;&gt;access -->
<g id="edge8" class="edge">
<title>auth_check&#45;&gt;access</title>
<path fill="none" stroke="black" d="M192.67,-301.71C202.2,-277.54 217.48,-230.37 210.76,-190 208.04,-173.61 202.22,-156.01 196.77,-141.88"/>
<polygon fill="black" stroke="black" points="200.09,-140.76 193.12,-132.79 193.6,-143.37 200.09,-140.76"/>
<text xml:space="preserve" text-anchor="middle" x="223.3" y="-203.8" font-family="Times,serif" font-size="14.00">Yes</text>
</g>
<!-- login&#45;&gt;access -->
<g id="edge10" class="edge">
<title>login&#45;&gt;access</title>
<path fill="none" stroke="black" d="M111.69,-189.51C125.39,-175.35 144.88,-155.22 160.28,-139.3"/>
<polygon fill="black" stroke="black" points="162.42,-142.12 166.86,-132.5 157.39,-137.25 162.42,-142.12"/>
</g>
<!-- end -->
<g id="node11" class="node">
<title>end</title>
<ellipse fill="#e0f7fa" stroke="black" cx="184.76" cy="-18" rx="28.22" ry="18"/>
<text xml:space="preserve" text-anchor="middle" x="184.76" y="-13.8" font-family="Helvetica,sans-Serif" font-size="14.00">End</text>
</g>
<!-- access&#45;&gt;end -->
<g id="edge11" class="edge">
<title>access&#45;&gt;end</title>
<path fill="none" stroke="black" d="M184.76,-94.51C184.76,-81.39 184.76,-63.14 184.76,-47.87"/>
<polygon fill="black" stroke="black" points="188.26,-47.93 184.76,-37.93 181.26,-47.93 188.26,-47.93"/>
</g>
</g>
</svg>
