<?xml version="1.0" encoding="UTF-8" standalone="no"?>
<!DOCTYPE svg PUBLIC "-//W3C//DTD SVG 1.1//EN"
 "http://www.w3.org/Graphics/SVG/1.1/DTD/svg11.dtd">
<!-- Generated by graphviz version 13.1.1 (0)
 -->
<!-- Title: TaskFlow Pages: 1 -->
<svg width="758pt" height="289pt"
 viewBox="0.00 0.00 758.00 289.00" xmlns="http://www.w3.org/2000/svg" xmlns:xlink="http://www.w3.org/1999/xlink">
<g id="graph0" class="graph" transform="scale(1 1) rotate(0) translate(4 285.4)">
<title>TaskFlow</title>
<polygon fill="white" stroke="none" points="-4,4 -4,-285.4 753.73,-285.4 753.73,4 -4,4"/>
<g id="clust1" class="cluster">
<title>cluster_user</title>
<path fill="none" stroke="#4e79a7" d="M33.73,-114.8C33.73,-114.8 729.73,-114.8 729.73,-114.8 735.73,-114.8 741.73,-120.8 741.73,-126.8 741.73,-126.8 741.73,-179.6 741.73,-179.6 741.73,-185.6 735.73,-191.6 729.73,-191.6 729.73,-191.6 33.73,-191.6 33.73,-191.6 27.73,-191.6 21.73,-185.6 21.73,-179.6 21.73,-179.6 21.73,-126.8 21.73,-126.8 21.73,-120.8 27.73,-114.8 33.73,-114.8"/>
<text xml:space="preserve" text-anchor="middle" x="381.73" y="-175" font-family="Helvetica,sans-Serif" font-size="14.00">End User Actions</text>
</g>
<g id="clust2" class="cluster">
<title>cluster_system</title>
<path fill="none" stroke="#59a14f" d="M64.73,-8C64.73,-8 340.73,-8 340.73,-8 346.73,-8 352.73,-14 352.73,-20 352.73,-20 352.73,-72.8 352.73,-72.8 352.73,-78.8 346.73,-84.8 340.73,-84.8 340.73,-84.8 64.73,-84.8 64.73,-84.8 58.73,-84.8 52.73,-78.8 52.73,-72.8 52.73,-72.8 52.73,-20 52.73,-20 52.73,-14 58.73,-8 64.73,-8"/>
<text xml:space="preserve" text-anchor="middle" x="202.73" y="-68.2" font-family="Helvetica,sans-Serif" font-size="14.00">System Processes</text>
</g>
<!-- start -->
<g id="node1" class="node">
<title>start</title>
<ellipse fill="#a0cbe8" stroke="black" cx="466.73" cy="-140.8" rx="74.2" ry="18"/>
<text xml:space="preserve" text-anchor="middle" x="466.73" y="-137.5" font-family="Helvetica,sans-Serif" font-size="11.00">User Selects Content</text>
</g>
<!-- load_page -->
<g id="node5" class="node">
<title>load_page</title>
<polygon fill="#9ecca4" stroke="black" points="345.13,-52 234.33,-52 234.33,-16 345.13,-16 345.13,-52"/>
<text xml:space="preserve" text-anchor="middle" x="289.73" y="-30.7" font-family="Helvetica,sans-Serif" font-size="11.00">Load Content Page</text>
</g>
<!-- start&#45;&gt;load_page -->
<g id="edge1" class="edge">
<title>start&#45;&gt;load_page</title>
<path fill="none" stroke="black" d="M439.46,-123.65C409.8,-106.1 362.16,-77.88 328.59,-58.01"/>
<polygon fill="black" stroke="black" points="330.78,-55.24 320.4,-53.16 327.22,-61.26 330.78,-55.24"/>
</g>
<!-- play -->
<g id="node2" class="node">
<title>play</title>
<ellipse fill="#a0cbe8" stroke="black" cx="289.73" cy="-140.8" rx="59.45" ry="18"/>
<text xml:space="preserve" text-anchor="middle" x="289.73" y="-137.5" font-family="Helvetica,sans-Serif" font-size="11.00">Initiate Playback</text>
</g>
<!-- sync_media -->
<g id="node6" class="node">
<title>sync_media</title>
<polygon fill="#9ecca4" stroke="black" points="191.2,-52 60.26,-52 60.26,-16 191.2,-16 191.2,-52"/>
<text xml:space="preserve" text-anchor="middle" x="125.73" y="-30.7" font-family="Helvetica,sans-Serif" font-size="11.00">Play Audio &amp; Sync Text</text>
</g>
<!-- play&#45;&gt;sync_media -->
<g id="edge3" class="edge">
<title>play&#45;&gt;sync_media</title>
<path fill="none" stroke="black" d="M265.18,-124.11C238,-106.75 193.92,-78.57 162.59,-58.56"/>
<polygon fill="black" stroke="black" points="164.5,-55.62 154.19,-53.19 160.73,-61.52 164.5,-55.62"/>
</g>
<!-- interact -->
<g id="node3" class="node">
<title>interact</title>
<ellipse fill="#a0cbe8" stroke="black" cx="108.73" cy="-140.8" rx="78.73" ry="18"/>
<text xml:space="preserve" text-anchor="middle" x="108.73" y="-137.5" font-family="Helvetica,sans-Serif" font-size="11.00">Control Audio or Music</text>
</g>
<!-- interact&#45;&gt;sync_media -->
<g id="edge7" class="edge">
<title>interact&#45;&gt;sync_media</title>
<path fill="none" stroke="black" d="M111.54,-122.49C114.13,-106.49 118.04,-82.4 121.1,-63.55"/>
<polygon fill="black" stroke="black" points="124.53,-64.26 122.67,-53.83 117.62,-63.14 124.53,-64.26"/>
</g>
<!-- end -->
<g id="node4" class="node">
<title>end</title>
<ellipse fill="#a0cbe8" stroke="black" cx="658.73" cy="-140.8" rx="74.59" ry="18"/>
<text xml:space="preserve" text-anchor="middle" x="658.73" y="-137.5" font-family="Helvetica,sans-Serif" font-size="11.00">Conclude Experience</text>
</g>
<!-- load_page&#45;&gt;play -->
<g id="edge2" class="edge">
<title>load_page&#45;&gt;play</title>
<path fill="none" stroke="black" d="M289.73,-52.33C289.73,-68.27 289.73,-92.21 289.73,-111.01"/>
<polygon fill="black" stroke="black" points="286.23,-110.98 289.73,-120.98 293.23,-110.98 286.23,-110.98"/>
</g>
<!-- decision -->
<g id="node7" class="node">
<title>decision</title>
<polygon fill="#f28e2b" stroke="black" points="108.73,-281.4 21.45,-263.4 108.73,-245.4 196.01,-263.4 108.73,-281.4"/>
<text xml:space="preserve" text-anchor="middle" x="108.73" y="-260.1" font-family="Helvetica,sans-Serif" font-size="11.00">User Interaction?</text>
</g>
<!-- sync_media&#45;&gt;decision -->
<g id="edge4" class="edge">
<title>sync_media&#45;&gt;decision</title>
<path fill="none" stroke="black" d="M83.21,-52.39C57.44,-65.41 26.73,-85.98 11.73,-114.8 -4.03,-145.08 -3.73,-161.17 11.73,-191.6 24.07,-215.88 49.07,-233.81 70.6,-245.56"/>
<polygon fill="black" stroke="black" points="68.98,-248.66 79.47,-250.13 72.19,-242.44 68.98,-248.66"/>
</g>
<!-- decision&#45;&gt;interact -->
<g id="edge5" class="edge">
<title>decision&#45;&gt;interact</title>
<path fill="none" stroke="black" d="M108.73,-245.12C108.73,-225.6 108.73,-193.52 108.73,-170.28"/>
<polygon fill="black" stroke="black" points="112.23,-170.56 108.73,-160.56 105.23,-170.56 112.23,-170.56"/>
<text xml:space="preserve" text-anchor="middle" x="119.61" y="-203.8" font-family="Times,serif" font-size="14.00">Yes</text>
</g>
<!-- decision&#45;&gt;end -->
<g id="edge6" class="edge">
<title>decision&#45;&gt;end</title>
<path fill="none" stroke="black" d="M175.71,-258.73C265.69,-252.29 429.69,-235.19 562.73,-191.6 583.76,-184.71 605.77,-173.61 623.41,-163.63"/>
<polygon fill="black" stroke="black" points="625.04,-166.73 631.94,-158.69 621.53,-160.68 625.04,-166.73"/>
<text xml:space="preserve" text-anchor="middle" x="561.77" y="-203.8" font-family="Times,serif" font-size="14.00">No/Finished</text>
</g>
</g>
</svg>
