<?xml version="1.0" encoding="UTF-8" standalone="no"?>
<!DOCTYPE svg PUBLIC "-//W3C//DTD SVG 1.1//EN"
 "http://www.w3.org/Graphics/SVG/1.1/DTD/svg11.dtd">
<!-- Generated by graphviz version 13.1.1 (0)
 -->
<!-- Title: G Pages: 1 -->
<svg width="996pt" height="1061pt"
 viewBox="0.00 0.00 996.00 1061.00" xmlns="http://www.w3.org/2000/svg" xmlns:xlink="http://www.w3.org/1999/xlink">
<g id="graph0" class="graph" transform="scale(1 1) rotate(0) translate(4 1056.6)">
<title>G</title>
<polygon fill="white" stroke="none" points="-4,4 -4,-1056.6 992.41,-1056.6 992.41,4 -4,4"/>
<!-- start_node -->
<g id="node1" class="node">
<title>start_node</title>
<polygon fill="lightgrey" stroke="black" points="381.79,-1052.6 269.88,-1034.6 381.79,-1016.6 493.71,-1034.6 381.79,-1052.6"/>
<polyline fill="none" stroke="black" points="281.73,-1036.51 281.73,-1032.69"/>
<polyline fill="none" stroke="black" points="369.95,-1018.51 393.64,-1018.51"/>
<polyline fill="none" stroke="black" points="481.86,-1032.69 481.86,-1036.51"/>
<polyline fill="none" stroke="black" points="393.64,-1050.69 369.95,-1050.69"/>
<text xml:space="preserve" text-anchor="middle" x="381.79" y="-1031.6" font-family="Helvetica,sans-Serif" font-size="10.00">Start: Access Full Content</text>
</g>
<!-- prompt_login -->
<g id="node7" class="node">
<title>prompt_login</title>
<ellipse fill="lightyellow" stroke="black" cx="381.79" cy="-939.6" rx="99.2" ry="18"/>
<text xml:space="preserve" text-anchor="middle" x="381.79" y="-936.6" font-family="Helvetica,sans-Serif" font-size="10.00">System Prompts for Login/Signup</text>
</g>
<!-- start_node&#45;&gt;prompt_login -->
<g id="edge1" class="edge">
<title>start_node&#45;&gt;prompt_login</title>
<path fill="none" stroke="black" d="M381.79,-1016.11C381.79,-1002.99 381.79,-984.74 381.79,-969.47"/>
<polygon fill="black" stroke="black" points="385.29,-969.53 381.79,-959.53 378.29,-969.53 385.29,-969.53"/>
</g>
<!-- end_node -->
<g id="node2" class="node">
<title>end_node</title>
<polygon fill="lightgrey" stroke="black" points="202.79,-36 87.55,-18 202.79,0 318.04,-18 202.79,-36"/>
<polyline fill="none" stroke="black" points="99.4,-19.85 99.4,-16.15"/>
<polyline fill="none" stroke="black" points="190.94,-1.85 214.65,-1.85"/>
<polyline fill="none" stroke="black" points="306.18,-16.15 306.18,-19.85"/>
<polyline fill="none" stroke="black" points="214.65,-34.15 190.94,-34.15"/>
<text xml:space="preserve" text-anchor="middle" x="202.79" y="-15" font-family="Helvetica,sans-Serif" font-size="10.00">End: Authenticated Access</text>
</g>
<!-- user_action -->
<g id="node3" class="node">
<title>user_action</title>
<path fill="lightblue" stroke="black" d="M592.64,-1052.6C592.64,-1052.6 548.94,-1052.6 548.94,-1052.6 542.94,-1052.6 536.94,-1046.6 536.94,-1040.6 536.94,-1040.6 536.94,-1028.6 536.94,-1028.6 536.94,-1022.6 542.94,-1016.6 548.94,-1016.6 548.94,-1016.6 592.64,-1016.6 592.64,-1016.6 598.64,-1016.6 604.64,-1022.6 604.64,-1028.6 604.64,-1028.6 604.64,-1040.6 604.64,-1040.6 604.64,-1046.6 598.64,-1052.6 592.64,-1052.6"/>
<text xml:space="preserve" text-anchor="middle" x="570.79" y="-1031.6" font-family="Helvetica,sans-Serif" font-size="10.00">user_action</text>
</g>
<!-- system_process -->
<g id="node4" class="node">
<title>system_process</title>
<polygon fill="lightyellow" stroke="black" points="735.92,-1052.6 647.67,-1052.6 647.67,-1016.6 735.92,-1016.6 735.92,-1052.6"/>
<text xml:space="preserve" text-anchor="middle" x="691.79" y="-1031.6" font-family="Helvetica,sans-Serif" font-size="10.00">system_process</text>
</g>
<!-- decision -->
<g id="node5" class="node">
<title>decision</title>
<polygon fill="pink" stroke="black" points="823.79,-1052.6 778.99,-1034.6 823.79,-1016.6 868.6,-1034.6 823.79,-1052.6"/>
<text xml:space="preserve" text-anchor="middle" x="823.79" y="-1031.6" font-family="Helvetica,sans-Serif" font-size="10.00">decision</text>
</g>
<!-- output -->
<g id="node6" class="node">
<title>output</title>
<polygon fill="lightgreen" stroke="black" points="988.41,-1052.6 926.98,-1052.6 911.17,-1016.6 972.61,-1016.6 988.41,-1052.6"/>
<text xml:space="preserve" text-anchor="middle" x="949.79" y="-1031.6" font-family="Helvetica,sans-Serif" font-size="10.00">output</text>
</g>
<!-- select_method -->
<g id="node8" class="node">
<title>select_method</title>
<ellipse fill="lightblue" stroke="black" cx="381.79" cy="-844.6" rx="79.48" ry="18"/>
<text xml:space="preserve" text-anchor="middle" x="381.79" y="-841.6" font-family="Helvetica,sans-Serif" font-size="10.00">User Selects Auth Method</text>
</g>
<!-- prompt_login&#45;&gt;select_method -->
<g id="edge2" class="edge">
<title>prompt_login&#45;&gt;select_method</title>
<path fill="none" stroke="black" d="M381.79,-921.11C381.79,-907.99 381.79,-889.74 381.79,-874.47"/>
<polygon fill="black" stroke="black" points="385.29,-874.53 381.79,-864.53 378.29,-874.53 385.29,-874.53"/>
</g>
<!-- is_otp -->
<g id="node9" class="node">
<title>is_otp</title>
<polygon fill="pink" stroke="black" points="298.79,-767.6 232.25,-749.6 298.79,-731.6 365.34,-749.6 298.79,-767.6"/>
<text xml:space="preserve" text-anchor="middle" x="298.79" y="-746.6" font-family="Helvetica,sans-Serif" font-size="10.00">OTP Method?</text>
</g>
<!-- select_method&#45;&gt;is_otp -->
<g id="edge3" class="edge">
<title>select_method&#45;&gt;is_otp</title>
<path fill="none" stroke="black" d="M366.57,-826.54C353.14,-811.5 333.49,-789.47 318.79,-773.01"/>
<polygon fill="black" stroke="black" points="321.49,-770.78 312.22,-765.65 316.27,-775.44 321.49,-770.78"/>
</g>
<!-- enter_details -->
<g id="node10" class="node">
<title>enter_details</title>
<ellipse fill="lightblue" stroke="black" cx="76.79" cy="-638.8" rx="76.79" ry="18"/>
<text xml:space="preserve" text-anchor="middle" x="76.79" y="-635.8" font-family="Helvetica,sans-Serif" font-size="10.00">User enters Email/Mobile</text>
</g>
<!-- is_otp&#45;&gt;enter_details -->
<g id="edge4" class="edge">
<title>is_otp&#45;&gt;enter_details</title>
<path fill="none" stroke="black" d="M275.87,-737.37C238.9,-719.25 165.53,-683.29 118.93,-660.45"/>
<polygon fill="black" stroke="black" points="120.73,-657.43 110.21,-656.17 117.64,-663.72 120.73,-657.43"/>
<text xml:space="preserve" text-anchor="middle" x="211.97" y="-690" font-family="Times,serif" font-size="14.00">Yes</text>
</g>
<!-- redirect_social -->
<g id="node14" class="node">
<title>redirect_social</title>
<ellipse fill="lightyellow" stroke="black" cx="298.79" cy="-638.8" rx="101.87" ry="18"/>
<text xml:space="preserve" text-anchor="middle" x="298.79" y="-635.8" font-family="Helvetica,sans-Serif" font-size="10.00">User Redirected to Social Provider</text>
</g>
<!-- is_otp&#45;&gt;redirect_social -->
<g id="edge5" class="edge">
<title>is_otp&#45;&gt;redirect_social</title>
<path fill="none" stroke="black" d="M298.79,-731.12C298.79,-714.31 298.79,-688.58 298.79,-668.72"/>
<polygon fill="black" stroke="black" points="302.29,-668.75 298.79,-658.75 295.29,-668.75 302.29,-668.75"/>
<text xml:space="preserve" text-anchor="middle" x="331.26" y="-690" font-family="Times,serif" font-size="14.00">No (Social)</text>
</g>
<!-- send_otp -->
<g id="node11" class="node">
<title>send_otp</title>
<ellipse fill="lightyellow" stroke="black" cx="99.79" cy="-543.8" rx="62.42" ry="18"/>
<text xml:space="preserve" text-anchor="middle" x="99.79" y="-540.8" font-family="Helvetica,sans-Serif" font-size="10.00">System Sends OTP</text>
</g>
<!-- enter_details&#45;&gt;send_otp -->
<g id="edge6" class="edge">
<title>enter_details&#45;&gt;send_otp</title>
<path fill="none" stroke="black" d="M81.01,-620.74C84.3,-607.45 88.93,-588.72 92.77,-573.18"/>
<polygon fill="black" stroke="black" points="96.16,-574.08 95.16,-563.53 89.36,-572.4 96.16,-574.08"/>
</g>
<!-- enter_otp -->
<g id="node12" class="node">
<title>enter_otp</title>
<ellipse fill="lightblue" stroke="black" cx="138.79" cy="-413.8" rx="82.14" ry="18"/>
<text xml:space="preserve" text-anchor="middle" x="138.79" y="-410.8" font-family="Helvetica,sans-Serif" font-size="10.00">User Enters Received OTP</text>
</g>
<!-- send_otp&#45;&gt;enter_otp -->
<g id="edge7" class="edge">
<title>send_otp&#45;&gt;enter_otp</title>
<path fill="none" stroke="black" d="M105.05,-525.54C111.51,-504.35 122.54,-468.14 130.23,-442.92"/>
<polygon fill="black" stroke="black" points="133.48,-444.23 133.05,-433.65 126.79,-442.19 133.48,-444.23"/>
</g>
<!-- validate -->
<g id="node13" class="node">
<title>validate</title>
<ellipse fill="lightyellow" stroke="black" cx="264.79" cy="-318.8" rx="77.14" ry="18"/>
<text xml:space="preserve" text-anchor="middle" x="264.79" y="-315.8" font-family="Helvetica,sans-Serif" font-size="10.00">System Validates Identity</text>
</g>
<!-- enter_otp&#45;&gt;validate -->
<g id="edge8" class="edge">
<title>enter_otp&#45;&gt;validate</title>
<path fill="none" stroke="black" d="M161.32,-396.17C181.39,-381.36 210.96,-359.54 233.35,-343.01"/>
<polygon fill="black" stroke="black" points="235.28,-345.94 241.24,-337.18 231.12,-340.3 235.28,-345.94"/>
</g>
<!-- is_valid -->
<g id="node16" class="node">
<title>is_valid</title>
<polygon fill="pink" stroke="black" points="264.79,-241.8 149.07,-223.8 264.79,-205.8 380.51,-223.8 264.79,-241.8"/>
<text xml:space="preserve" text-anchor="middle" x="264.79" y="-220.8" font-family="Helvetica,sans-Serif" font-size="10.00">Authentication Successful?</text>
</g>
<!-- validate&#45;&gt;is_valid -->
<g id="edge11" class="edge">
<title>validate&#45;&gt;is_valid</title>
<path fill="none" stroke="black" d="M264.79,-300.31C264.79,-287.19 264.79,-268.94 264.79,-253.67"/>
<polygon fill="black" stroke="black" points="268.29,-253.73 264.79,-243.73 261.29,-253.73 268.29,-253.73"/>
</g>
<!-- social_login -->
<g id="node15" class="node">
<title>social_login</title>
<ellipse fill="lightblue" stroke="black" cx="288.79" cy="-478.8" rx="97.19" ry="18"/>
<text xml:space="preserve" text-anchor="middle" x="288.79" y="-475.8" font-family="Helvetica,sans-Serif" font-size="10.00">User Logs in with Social Account</text>
</g>
<!-- redirect_social&#45;&gt;social_login -->
<g id="edge9" class="edge">
<title>redirect_social&#45;&gt;social_login</title>
<path fill="none" stroke="black" d="M297.7,-620.59C296,-593.64 292.68,-541.18 290.61,-508.47"/>
<polygon fill="black" stroke="black" points="294.1,-508.26 289.98,-498.5 287.12,-508.7 294.1,-508.26"/>
</g>
<!-- social_login&#45;&gt;validate -->
<g id="edge10" class="edge">
<title>social_login&#45;&gt;validate</title>
<path fill="none" stroke="black" d="M286.18,-460.59C282.07,-433.52 274.05,-380.72 269.08,-348.04"/>
<polygon fill="black" stroke="black" points="272.59,-347.85 267.63,-338.48 265.67,-348.9 272.59,-347.85"/>
</g>
<!-- grant_access -->
<g id="node17" class="node">
<title>grant_access</title>
<polygon fill="lightgreen" stroke="black" points="319.8,-131 133.67,-131 85.78,-95 271.92,-95 319.8,-131"/>
<text xml:space="preserve" text-anchor="middle" x="202.79" y="-110" font-family="Helvetica,sans-Serif" font-size="10.00">Grant Full Content Access</text>
</g>
<!-- is_valid&#45;&gt;grant_access -->
<g id="edge12" class="edge">
<title>is_valid&#45;&gt;grant_access</title>
<path fill="none" stroke="black" d="M255.64,-206.75C245.79,-189.45 229.94,-161.64 218.16,-140.97"/>
<polygon fill="black" stroke="black" points="221.34,-139.47 213.34,-132.51 215.25,-142.93 221.34,-139.47"/>
<text xml:space="preserve" text-anchor="middle" x="248.39" y="-164.2" font-family="Times,serif" font-size="14.00">Yes</text>
</g>
<!-- show_error -->
<g id="node18" class="node">
<title>show_error</title>
<polygon fill="orange" stroke="black" points="569.08,-131 404.78,-131 362.51,-95 526.81,-95 569.08,-131"/>
<text xml:space="preserve" text-anchor="middle" x="465.79" y="-110" font-family="Helvetica,sans-Serif" font-size="10.00">Display Error Message</text>
</g>
<!-- is_valid&#45;&gt;show_error -->
<g id="edge13" class="edge">
<title>is_valid&#45;&gt;show_error</title>
<path fill="none" stroke="black" d="M289.84,-209.24C323.34,-191.11 383.19,-158.71 423.68,-136.8"/>
<polygon fill="black" stroke="black" points="425.32,-139.89 432.45,-132.05 421.99,-133.73 425.32,-139.89"/>
<text xml:space="preserve" text-anchor="middle" x="385.88" y="-164.2" font-family="Times,serif" font-size="14.00">No</text>
</g>
<!-- grant_access&#45;&gt;end_node -->
<g id="edge14" class="edge">
<title>grant_access&#45;&gt;end_node</title>
<path fill="none" stroke="black" d="M202.79,-94.51C202.79,-81.39 202.79,-63.14 202.79,-47.87"/>
<polygon fill="black" stroke="black" points="206.29,-47.93 202.79,-37.93 199.29,-47.93 206.29,-47.93"/>
</g>
<!-- show_error&#45;&gt;select_method -->
<g id="edge15" class="edge">
<title>show_error&#45;&gt;select_method</title>
<path fill="none" stroke="black" d="M465.79,-131.34C465.79,-152.81 465.79,-190.5 465.79,-222.8 465.79,-750.6 465.79,-750.6 465.79,-750.6 465.79,-780.3 441.91,-804.77 419.62,-821.14"/>
<polygon fill="black" stroke="black" points="417.7,-818.21 411.48,-826.79 421.69,-823.96 417.7,-818.21"/>
</g>
</g>
</svg>
